<svg xmlns="http://www.w3.org/2000/svg" xmlns:xlink="http://www.w3.org/1999/xlink" width="27" height="25"><defs><path id="a" d="m6.129 2.465 7.371-.777 7.371.777s5.707 7.647 5.707 7.535c0 .112-13.078 15.313-13.078 15.313L.422 10l5.707-7.535Z"/></defs><g fill="none" fill-rule="evenodd" transform="translate(0 -1)"><mask id="b" fill="#fff"><use xlink:href="#a"/></mask><use fill="#FDB300" xlink:href="#a"/><g mask="url(#b)"><path fill="#EA6C00" d="M5.719 10 13.5 25.313.422 10zM21.281 10 13.5 25.313 26.578 10z"/><path fill="#FDAD00" d="M5.719 10h15.562L13.5 25.313z"/></g><g mask="url(#b)"><path fill="#FDD231" d="m13.5 1.688-7.371.778-.41 7.535zM13.5 1.688l7.371.778.41 7.535z"/><path fill="#FDAD00" d="m26.579 10.001-5.707-7.535.408 7.535zM.422 10.001l5.707-7.535-.41 7.535z"/><path fill="#FEEEB7" d="m13.5 1.688-7.781 8.313h15.56z"/></g></g></svg>